name rise30.3154peak39.0474fall46.5389.mot
datacolumns 19
datarows 20
range 17.25660600000000 17.28827300000000
endheader
time	ground_force1_vx	ground_force1_vy	ground_force1_vz	ground_force1_px	ground_force1_py	ground_force1_pz	ground_force2_vx	ground_force2_vy	ground_force2_vz	ground_force2_px	ground_force2_py	ground_force2_pz	ground_torque1_x	ground_torque1_y	ground_torque1_z	ground_torque2_x	ground_torque2_y	ground_torque2_z	
17.25660600000000	-6.80971600000000	44.38184800000000	-11.22636400000000	0.31153900000000	0.00000000000000	0.13030100000000	-44.22628900000000	774.43085599999995	-49.81427600000000	0.19164700000000	0.00000000000000	-0.05290000000000	0.00000000000000	-7.72890800000000	0.00000000000000	0.00000000000000	-21.45221400000000	0.00000000000000	
17.25827200000000	-7.41337200000000	52.19687700000000	-12.66275600000000	0.32298400000000	0.00000000000000	0.13097100000000	-44.67361000000000	771.76765000000000	-49.65696200000000	0.19089500000000	0.00000000000000	-0.05286000000000	0.00000000000000	-8.91282400000000	0.00000000000000	0.00000000000000	-21.36492300000000	0.00000000000000	
17.25993700000000	-7.87115100000000	60.15366200000000	-13.98023800000000	0.33317500000000	0.00000000000000	0.13158100000000	-45.14477800000000	769.02062999999998	-49.48522100000000	0.19015100000000	0.00000000000000	-0.05281700000000	0.00000000000000	-10.04380200000000	0.00000000000000	0.00000000000000	-21.27734100000000	0.00000000000000	
17.26160400000000	-8.16345600000000	68.15189900000000	-15.14845800000000	0.34231300000000	0.00000000000000	0.13214300000000	-45.64011700000000	766.18814899999995	-49.29866300000000	0.18941500000000	0.00000000000000	-0.05277000000000	0.00000000000000	-11.09550900000000	0.00000000000000	0.00000000000000	-21.18943100000000	0.00000000000000	
17.26326600000000	-8.27859800000000	76.11407500000000	-16.14670200000000	0.35055400000000	0.00000000000000	0.13266500000000	-46.15981900000000	763.26837799999998	-49.09689600000000	0.18868600000000	0.00000000000000	-0.05272100000000	0.00000000000000	-12.04828900000000	0.00000000000000	0.00000000000000	-21.10114400000000	0.00000000000000	
17.26493900000000	-8.21264900000000	83.98801600000000	-16.96409200000000	0.35802500000000	0.00000000000000	0.13315300000000	-46.70393800000000	760.25930900000003	-48.87953000000000	0.18796400000000	0.00000000000000	-0.05266900000000	0.00000000000000	-12.88967900000000	0.00000000000000	0.00000000000000	-21.01241300000000	0.00000000000000	
17.26660800000000	-7.96870500000000	91.74692400000001	-17.59894600000000	0.36482700000000	0.00000000000000	0.13361400000000	-47.27238600000000	757.15876100000003	-48.64617300000000	0.18724700000000	0.00000000000000	-0.05261400000000	0.00000000000000	-13.61422900000000	0.00000000000000	0.00000000000000	-20.92315300000000	0.00000000000000	
17.26827400000000	-7.55569300000000	99.38731500000000	-18.05750400000000	0.37104600000000	0.00000000000000	0.13405000000000	-47.86493400000000	753.96438499999999	-48.39644100000000	0.18653500000000	0.00000000000000	-0.05255600000000	0.00000000000000	-14.22279100000000	0.00000000000000	0.00000000000000	-20.83326600000000	0.00000000000000	
17.26993400000000	-6.98691500000000	106.92540000000000	-18.35222400000000	0.37675100000000	0.00000000000000	0.13446700000000	-48.48120300000000	750.67367300000001	-48.12995300000000	0.18582700000000	0.00000000000000	-0.05249500000000	0.00000000000000	-14.72139600000000	0.00000000000000	0.00000000000000	-20.74263800000000	0.00000000000000	
17.27160700000000	-6.27848600000000	114.39247100000000	-18.49986300000000	0.38200100000000	0.00000000000000	0.13486600000000	-49.12066700000000	747.28396399999997	-47.84633800000000	0.18512300000000	0.00000000000000	-0.05243100000000	0.00000000000000	-15.11990800000000	0.00000000000000	0.00000000000000	-20.65114000000000	0.00000000000000	
17.27326800000000	-5.44781700000000	121.82985400000000	-18.51955300000000	0.38684700000000	0.00000000000000	0.13525000000000	-49.78265200000000	743.79245700000001	-47.54523500000000	0.18442200000000	0.00000000000000	-0.05236500000000	0.00000000000000	-15.43059200000000	0.00000000000000	0.00000000000000	-20.55863100000000	0.00000000000000	
17.27493600000000	-4.51226400000000	129.28391700000000	-18.43101400000000	0.39133000000000	0.00000000000000	0.13562000000000	-50.46633300000000	740.19621700000005	-47.22629900000000	0.18372400000000	0.00000000000000	-0.05229600000000	0.00000000000000	-15.66673800000000	0.00000000000000	0.00000000000000	-20.46495600000000	0.00000000000000	
17.27661800000000	-3.48800600000000	136.80151200000000	-18.25303100000000	0.39548800000000	0.00000000000000	0.13597900000000	-51.17073400000000	736.49219400000004	-46.88920000000000	0.18302700000000	0.00000000000000	-0.05222400000000	0.00000000000000	-15.84144700000000	0.00000000000000	0.00000000000000	-20.36994700000000	0.00000000000000	
17.27826600000000	-2.38922100000000	144.42615300000000	-18.00227200000000	0.39935300000000	0.00000000000000	0.13632800000000	-51.89473100000000	732.67723000000001	-46.53362700000000	0.18233300000000	0.00000000000000	-0.05215000000000	0.00000000000000	-15.96664400000000	0.00000000000000	0.00000000000000	-20.27342600000000	0.00000000000000	
17.27993800000000	-1.22755600000000	152.19506999999999	-17.69246900000000	0.40295100000000	0.00000000000000	0.13666700000000	-52.63705300000000	728.74807399999997	-46.15929300000000	0.18164000000000	0.00000000000000	-0.05207400000000	0.00000000000000	-16.05235700000000	0.00000000000000	0.00000000000000	-20.17520400000000	0.00000000000000	
17.28160400000000	-0.01189000000000	160.13723600000000	-17.33397700000000	0.40630700000000	0.00000000000000	0.13699700000000	-53.39628200000000	724.70140400000003	-45.76593400000000	0.18094900000000	0.00000000000000	-0.05199400000000	0.00000000000000	-16.10627900000000	0.00000000000000	0.00000000000000	-20.07508400000000	0.00000000000000	
17.28327100000000	1.25165200000000	168.27232699999999	-16.93366100000000	0.40944300000000	0.00000000000000	0.13732000000000	-54.17085700000000	720.53383499999995	-45.35331600000000	0.18025800000000	0.00000000000000	-0.05191300000000	0.00000000000000	-16.13358900000000	0.00000000000000	0.00000000000000	-19.97286000000000	0.00000000000000	
17.28493300000000	2.55947500000000	176.61052699999999	-16.49506900000000	0.41237700000000	0.00000000000000	0.13763500000000	-54.95907800000000	716.24194399999999	-44.92123500000000	0.17956800000000	0.00000000000000	-0.05182900000000	0.00000000000000	-16.13700400000000	0.00000000000000	0.00000000000000	-19.86831900000000	0.00000000000000	
17.28660800000000	3.91013400000000	185.15303599999999	-16.01882800000000	0.41512700000000	0.00000000000000	0.13794400000000	-55.75911100000000	711.82228599999996	-44.46952000000000	0.17887900000000	0.00000000000000	-0.05174200000000	0.00000000000000	-16.11700900000000	0.00000000000000	0.00000000000000	-19.76124200000000	0.00000000000000	
17.28827300000000	5.30386400000000	193.89312500000000	-15.50318600000000	0.41770600000000	0.00000000000000	0.13824700000000	-56.56898900000000	707.27141600000004	-43.99803900000000	0.17819000000000	0.00000000000000	-0.05165300000000	0.00000000000000	-16.07223400000000	0.00000000000000	0.00000000000000	-19.65140600000000	0.00000000000000	
